<svg height='100px' width='100px'  fill="#000000" xmlns="http://www.w3.org/2000/svg" xmlns:xlink="http://www.w3.org/1999/xlink" version="1.1" x="0px" y="0px" viewBox="0 0 50 50" style="enable-background:new 0 0 50 50;" xml:space="preserve"><path d="M25.1875,3.7333984c-11.6699219,0-21.1640625,9.4941406-21.1640625,21.1640625S13.5175781,46.0615234,25.1875,46.0615234  s21.1640625-9.4941406,21.1640625-21.1640625S36.8574219,3.7333984,25.1875,3.7333984z M25.1875,45.3115234  c-11.2563477,0-20.4140625-9.1572266-20.4140625-20.4140625S13.9311523,4.4833984,25.1875,4.4833984  s20.4140625,9.1572266,20.4140625,20.4140625S36.4438477,45.3115234,25.1875,45.3115234z M18.9790039,33.9394531h11.6669922  V16.1064453H18.9790039V33.9394531z M19.7290039,33.1894531v-2.0419922h10.1669922v2.0419922H19.7290039z M19.7290039,30.3974609  v-11.8125h10.1669922v11.8125H19.7290039z M29.8959961,16.8564453v0.9785156H19.7290039v-0.9785156H29.8959961z   M24.359375,31.7724609h0.90625v0.75h-0.90625V31.7724609z"></path></svg>