<svg height='100px' width='100px'  fill="#000000" xmlns="http://www.w3.org/2000/svg" xmlns:xlink="http://www.w3.org/1999/xlink" version="1.1" x="0px" y="0px" viewBox="0 0 50 50" style="enable-background:new 0 0 50 50;" xml:space="preserve"><path d="M25,3.8359375C13.3300781,3.8359375,3.8359375,13.3300781,3.8359375,25S13.3300781,46.1640625,25,46.1640625  S46.1640625,36.6699219,46.1640625,25S36.6699219,3.8359375,25,3.8359375z M25,45.4140625  C13.7431641,45.4140625,4.5859375,36.2563477,4.5859375,25S13.7431641,4.5859375,25,4.5859375S45.4140625,13.7436523,45.4140625,25  S36.2568359,45.4140625,25,45.4140625z M14.40625,32.59375h21.25v-15.125h-21.25V32.59375z M15.15625,31.84375V18.6583862  l9.8427734,8.4177856l9.9072266-8.4213257V31.84375H15.15625z M15.7972412,18.21875h18.4637451l-9.2600098,7.8720703  L15.7972412,18.21875z"></path></svg>